# xmcd
#
# Track frame offsets:
#	150
#	22730
#	45280
#	70855
#	92032
#	117450
#	140912
#	159510
#	179397
#
# Disc length: 2693 seconds
#
# Revision: 0
# Processed by: cddbd v1.4PL0 Copyright (c) Steve Scherf et al.
# Submitted via: audiograbber 1.81.01
#
DISCID=720a8309
DTITLE=Squallor - I grandi successi originali cd2
DYEAR=1900
DGENRE=pop
TTITLE0=La ricreazione
TTITLE1=Haptain of the kapz
TTITLE2=Manzo
TTITLE3='o camionista
TTITLE4=Pierpandi il guru
TTITLE5=Jammucenne
TTITLE6=Attrazione anale
TTITLE7=Preservame atu
TTITLE8=Mi a rovinato il 68
EXTD=
EXTT0=
EXTT1=
EXTT2=
EXTT3=
EXTT4=
EXTT5=
EXTT6=
EXTT7=
EXTT8=
PLAYORDER=
